<?xml version="1.0" standalone="no"?>
<!DOCTYPE svg PUBLIC "-//W3C//DTD SVG 20010904//EN"
 "http://www.w3.org/TR/2001/REC-SVG-20010904/DTD/svg10.dtd">
<svg version="1.0" xmlns="http://www.w3.org/2000/svg"
 width="374.000000pt" height="373.000000pt" viewBox="0 0 374.000000 373.000000"
 preserveAspectRatio="xMidYMid meet">

<g transform="translate(0.000000,373.000000) scale(0.100000,-0.100000)"
fill="#000000" stroke="none">
<path d="M1893 3539 c-36 -10 -63 -43 -63 -74 0 -36 31 -67 96 -96 68 -31 80
-52 48 -83 -30 -30 -88 -14 -104 30 -7 17 -17 24 -36 24 -24 0 -25 -3 -19 -27
11 -49 48 -76 108 -81 65 -5 94 8 113 53 10 26 11 40 2 65 -9 27 -23 38 -84
66 -41 18 -74 39 -74 47 0 42 69 50 104 12 26 -28 66 -34 66 -9 0 22 -55 74
-78 74 -11 0 -26 2 -34 4 -7 2 -27 0 -45 -5z"/>
<path d="M1565 3493 c2 -21 10 -89 16 -150 l12 -113 30 0 c26 0 29 3 23 23 -3
12 -11 79 -17 150 l-12 127 -29 0 c-27 0 -28 -2 -23 -37z"/>
<path d="M2246 3333 c-24 -76 -41 -141 -38 -145 8 -8 171 -68 185 -68 4 0 7
10 5 22 -2 16 -18 27 -63 43 -32 12 -61 27 -63 33 -2 6 13 62 32 124 36 112
36 127 -1 128 -6 0 -32 -62 -57 -137z"/>
<path d="M1094 3401 c-54 -25 -74 -73 -49 -120 19 -37 47 -46 124 -37 46 5 61
3 71 -9 18 -21 5 -60 -25 -73 -35 -16 -55 -15 -76 4 -17 15 -59 12 -59 -5 0
-15 41 -51 66 -57 34 -9 109 21 134 53 28 36 26 88 -5 118 -22 22 -32 25 -105
25 -66 0 -82 3 -87 17 -13 33 83 74 102 43 3 -6 15 -5 31 2 l24 11 -22 24
c-26 28 -67 30 -124 4z"/>
<path d="M2625 3177 c-65 -51 -120 -97 -122 -104 -8 -22 38 -26 67 -5 l27 21
52 -35 c50 -34 51 -36 45 -73 -5 -33 -3 -41 16 -51 12 -6 23 -10 25 -8 3 4 41
205 50 269 6 41 4 47 -18 62 -24 15 -26 14 -142 -76z m100 -39 c-4 -29 -9 -56
-12 -60 -5 -9 -59 17 -69 33 -6 11 61 78 79 79 5 0 5 -24 2 -52z"/>
<path d="M708 3163 c-14 -16 -12 -31 24 -163 22 -80 43 -148 47 -153 4 -4 16
-1 26 7 17 12 18 18 8 50 -11 35 -10 36 38 77 l50 42 34 -19 c28 -15 36 -16
50 -4 8 7 14 17 13 21 -4 12 -248 159 -263 159 -7 0 -19 -8 -27 -17z m102 -79
c22 -15 40 -32 40 -38 0 -7 -14 -22 -30 -34 l-30 -23 -9 25 c-14 35 -24 96
-17 96 4 0 24 -12 46 -26z"/>
<path d="M2941 2928 c-55 -50 -101 -97 -101 -104 0 -6 6 -16 13 -22 9 -7 32 8
87 59 111 101 116 96 30 -31 -51 -76 -59 -93 -50 -110 6 -11 15 -20 21 -20 6
0 53 23 105 51 52 28 94 46 94 41 0 -6 -35 -42 -77 -81 -72 -66 -77 -72 -61
-87 15 -16 24 -10 120 76 57 51 104 97 106 104 1 6 -8 24 -21 40 l-23 28 -84
-43 c-47 -24 -88 -45 -92 -47 -19 -9 -4 24 42 94 28 41 50 81 50 88 0 12 -41
56 -52 56 -3 0 -51 -41 -107 -92z"/>
<path d="M428 2877 c-20 -28 -49 -69 -64 -89 -22 -31 -25 -40 -14 -53 11 -13
17 -11 44 20 l31 35 95 -75 c52 -41 97 -75 100 -75 3 0 11 9 18 20 11 18 3 26
-83 96 -52 42 -95 79 -95 81 0 3 9 21 21 39 20 33 19 54 -4 54 -7 0 -29 -24
-49 -53z"/>
<path d="M967 2653 c-4 -3 -7 -75 -7 -160 l0 -153 840 0 841 0 -3 158 -3 157
-831 3 c-457 1 -834 -1 -837 -5z"/>
<path d="M227 2543 c-24 -23 -1 -43 116 -97 67 -32 126 -58 131 -59 5 -1 13 8
17 21 8 22 1 27 -114 83 -123 59 -138 65 -150 52z"/>
<path d="M3290 2402 c-69 -25 -127 -47 -129 -48 -5 -5 19 -91 41 -144 23 -54
42 -70 84 -70 35 0 59 17 69 50 5 17 12 19 45 14 50 -8 80 19 80 74 -1 41 -41
165 -56 168 -5 1 -65 -18 -134 -44z m138 -75 c15 -53 6 -77 -28 -77 -22 0 -34
15 -50 64 -11 35 -11 41 6 53 34 25 57 12 72 -40z m-114 -39 c13 -47 13 -55 0
-75 -25 -39 -55 -28 -79 30 -21 50 -19 72 8 85 44 21 55 15 71 -40z"/>
<path d="M967 2273 c-4 -3 -7 -300 -7 -660 l0 -653 840 0 840 0 -2 658 -3 657
-831 3 c-457 1 -834 -1 -837 -5z"/>
<path d="M140 2240 c-27 -27 -40 -63 -40 -111 0 -74 80 -118 126 -68 10 11 30
44 44 72 26 53 50 68 75 47 33 -28 6 -120 -34 -120 -12 0 -21 -10 -25 -26 -9
-34 -3 -39 35 -28 39 11 69 49 78 100 14 77 -19 134 -78 136 -39 1 -66 -23
-98 -87 -35 -68 -54 -80 -73 -46 -16 30 -1 81 26 92 17 6 24 16 24 34 0 32
-31 34 -60 5z"/>
<path d="M3260 1961 c0 -23 6 -30 33 -37 32 -10 32 -11 35 -77 l3 -66 -36 -15
c-27 -12 -35 -21 -35 -40 0 -15 6 -26 13 -26 6 0 71 27 144 61 112 53 132 66
136 88 3 14 0 31 -6 37 -11 9 -266 104 -281 104 -3 0 -6 -13 -6 -29z m193 -90
c37 -14 34 -23 -16 -43 -61 -26 -67 -24 -67 23 0 40 1 41 28 36 15 -3 39 -10
55 -16z"/>
<path d="M298 1788 l-57 -56 -16 24 c-35 54 -103 55 -131 2 -12 -24 -14 -47
-9 -113 4 -45 10 -87 14 -92 5 -9 245 10 279 22 7 3 12 15 10 27 -3 20 -8 22
-65 19 l-63 -2 0 31 c0 31 13 49 79 103 30 25 33 31 25 59 l-9 32 -57 -56z
m-100 -60 c5 -7 13 -36 17 -64 l6 -51 -37 -6 c-20 -4 -40 -4 -44 -2 -13 8 -20
96 -10 116 12 21 52 25 68 7z"/>
<path d="M3247 1553 c-4 -3 -7 -14 -7 -23 0 -12 22 -23 81 -41 44 -13 81 -28
80 -33 0 -10 -41 -26 -136 -51 -53 -15 -65 -22 -70 -43 -3 -14 -2 -28 2 -32 4
-4 66 -24 137 -44 101 -29 131 -34 138 -24 17 27 5 36 -78 60 -47 13 -84 28
-83 33 3 11 41 25 136 51 52 14 67 23 74 42 5 14 6 28 2 32 -4 4 -60 21 -123
39 -63 18 -122 34 -131 37 -8 2 -18 1 -22 -3z"/>
<path d="M403 1402 c-9 -6 -5 -26 17 -81 17 -40 30 -76 30 -80 0 -12 -66 -40
-77 -33 -5 4 -21 35 -34 70 -23 59 -44 78 -55 48 -3 -7 6 -42 20 -76 14 -34
23 -66 21 -70 -3 -5 -18 -13 -34 -18 l-30 -11 -27 71 c-27 68 -46 90 -64 72
-9 -10 63 -197 79 -202 10 -3 239 94 255 108 9 9 -66 202 -80 207 -5 1 -15 -1
-21 -5z"/>
<path d="M3077 1103 c-20 -32 -38 -70 -42 -85 -27 -107 143 -224 228 -158 34
27 102 139 91 149 -22 20 -224 151 -233 151 -5 0 -25 -26 -44 -57z m138 -63
c40 -27 76 -53 79 -58 9 -15 -44 -81 -69 -88 -52 -13 -145 52 -145 100 0 34
30 96 47 96 8 0 47 -22 88 -50z"/>
<path d="M515 939 c-72 -26 -136 -49 -142 -49 -17 0 -16 -10 2 -34 14 -19 18
-18 122 22 59 23 109 40 111 38 2 -3 -24 -50 -58 -106 -61 -101 -62 -103 -43
-122 20 -19 21 -18 96 110 43 71 77 136 77 144 0 8 -8 22 -17 31 -17 14 -29
11 -148 -34z"/>
<path d="M2799 766 c-44 -30 -74 -84 -66 -119 6 -20 106 -158 147 -201 9 -9
40 10 40 25 0 4 -26 41 -59 82 -81 102 -86 113 -66 143 18 28 50 43 76 37 10
-3 47 -43 84 -89 60 -75 68 -82 86 -71 10 6 19 16 19 20 0 13 -128 164 -153
182 -31 22 -67 18 -108 -9z"/>
<path d="M779 653 c-106 -136 -102 -127 -80 -147 18 -16 22 -12 103 91 105
136 101 127 79 147 -18 16 -22 12 -102 -91z"/>
<path d="M974 479 c-51 -102 -63 -134 -52 -140 26 -17 34 -8 77 79 24 48 45
83 47 77 2 -5 8 -59 13 -120 8 -84 15 -113 28 -123 10 -7 21 -11 25 -10 4 2
36 63 72 135 63 128 65 133 45 144 -11 6 -22 9 -24 7 -1 -2 -21 -41 -44 -87
-23 -45 -44 -81 -46 -79 -2 2 -9 55 -15 118 -11 109 -19 129 -47 130 -7 0 -42
-59 -79 -131z"/>
<path d="M2516 561 c-3 -5 10 -45 30 -91 20 -45 33 -84 30 -88 -4 -3 -19 3
-34 14 -120 87 -152 105 -171 99 -12 -3 -21 -12 -21 -20 0 -14 76 -199 101
-248 13 -24 17 -26 33 -14 17 13 16 18 -19 101 -21 47 -35 89 -32 92 3 3 45
-24 93 -61 71 -52 94 -64 114 -59 14 3 27 7 29 10 2 2 -8 30 -22 61 -14 32
-39 93 -57 136 -24 57 -37 77 -50 77 -11 0 -21 -4 -24 -9z"/>
<path d="M1438 425 c-15 -8 -31 -30 -38 -49 -12 -38 -50 -219 -46 -223 1 -2
13 -4 26 -5 23 -3 25 2 42 91 27 141 42 162 104 147 43 -11 48 -42 25 -154
-26 -125 -26 -122 4 -122 27 0 25 -4 50 118 18 89 19 113 3 147 -22 50 -120
78 -170 50z"/>
<path d="M2023 410 c-18 -4 -49 -20 -69 -35 -27 -21 -34 -32 -30 -49 3 -11 6
-32 6 -46 1 -44 10 -49 73 -38 45 8 57 14 57 28 0 14 -9 20 -37 22 -50 4 -57
35 -14 61 51 30 103 21 125 -22 32 -64 27 -138 -12 -167 -24 -18 -82 -17 -103
2 -11 10 -25 13 -38 9 -46 -14 -7 -63 57 -72 56 -7 107 12 142 55 24 30 30 46
30 86 0 73 -32 134 -84 157 -44 20 -54 21 -103 9z"/>
</g>
</svg>
